<svg xmlns="http://www.w3.org/2000/svg" version="1.2" viewBox="36.48 109 405.79 101.3"><style>.s0{fill:#fff}</style><g id="Page 1"><path id="Path 1" fill-rule="evenodd" d="M173.81 148.16c-.78-1.75-2.32-3.5-4.28-4.43l-4.35-1.99c-.9-.4-1.47-1.33-1.47-2.47 0-1.49 1.25-2.53 2.71-2.53.79 0 1.54.43 2 1.04l.32.42 4.22-1.92-.36-.65c-1.25-2.25-3.79-3.53-6.28-3.53-3.89 0-7.28 3.14-7.28 7.03 0 2.78 1.46 5.46 4.28 6.75l4.14 1.89c1.36.64 2.32 2.07 2.32 3.53 0 2.32-1.86 3.89-4 3.89-1.32 0-2.64-.82-3.25-2l-.28-.53-4.25 1.93.32.6c1.5 2.86 4.39 4.64 7.61 4.64 4.85 0 8.49-3.99 8.49-8.67 0-1-.21-2.07-.61-3zm4.89-15.81v4.57h6.54v22.7h4.57v-22.7h6.53v-4.57zm39.87 0H214v18.67c0 2.32-1.93 4.21-4.28 4.21-2.32 0-4.29-1.89-4.29-4.21v-18.67h-4.57v18.67c0 4.85 4 8.85 8.86 8.85 4.89 0 8.85-4 8.85-8.85zm13.17 0h-7.28v27.23h7.28c7.5 0 13.6-6.1 13.6-13.6 0-7.53-6.1-13.63-13.6-13.63zm0 22.66h-2.71v-18.1h2.71c4.96 0 9.03 4.07 9.03 9.07 0 4.96-4.07 9.03-9.03 9.03zm17.45-22.66v4.56h3.25v18.13h-3.25v4.54h11.14v-4.54h-3.32v-18.13h3.32v-4.56zm28.27-.26c-7.63 0-13.88 6.22-13.88 13.89 0 7.64 6.25 13.88 13.88 13.88 7.68 0 13.89-6.24 13.89-13.88 0-7.67-6.21-13.89-13.89-13.89zm0 23.1c-5.06 0-9.2-4.14-9.2-9.21 0-5.1 4.14-9.25 9.2-9.25 5.11 0 9.25 4.15 9.25 9.25 0 5.07-4.14 9.21-9.25 9.21zm27.02 4.39h4.64l1.47-3.32h12.53l1.46 3.32h4.61l-12.35-27.98zm12.35-17.49 4.24 9.56h-8.45zm33.44.64c0-5.71-4.64-10.38-10.39-10.38h-7.21v27.23h4.57v-6.46h2.64q.97 0 1.93-.21l4.21 6.67h5.46l-5.38-8.53a10.32 10.32 0 0 0 4.17-8.32zm-10.39 5.82h-2.64v-11.63h2.64c3.22 0 5.82 2.6 5.82 5.81 0 3.04-2.53 5.82-5.82 5.82zm28.42-16.45c-7.64 0-13.89 6.21-13.89 13.88 0 7.64 6.25 13.89 13.89 13.89 7.67 0 13.88-6.25 13.88-13.89 0-7.67-6.21-13.88-13.88-13.88zm0 23.09c-5.07 0-9.21-4.14-9.21-9.21 0-5.1 4.14-9.24 9.21-9.24 5.1 0 9.24 4.14 9.24 9.24 0 5.07-4.14 9.21-9.24 9.21zm19.16-23.63v28.02h4.61v-15.85l8.46 10.32 8.5-10.32v15.85h4.64v-28.02l-13.14 15.89zm30.09 28.02h4.64l1.47-3.32h12.53l1.46 3.32h4.61L429.9 131.6zm12.36-17.5 4.24 9.57h-8.46z" class="s0"/><path id="Path 2" fill-rule="evenodd" d="M158 186.03h2.62l.82-1.87h7.07l.82 1.87h2.6l-6.96-15.78zm6.96-9.87 2.4 5.4h-4.77zm25.18.36c0-3.22-2.62-5.86-5.86-5.86h-4.07v15.36h2.58v-3.64h1.49q.54 0 1.09-.12l2.37 3.76h3.08l-3.04-4.81a5.835 5.835 0 0 0 2.36-4.69zm-5.86 3.28h-1.49v-6.56h1.49c1.81 0 3.28 1.47 3.28 3.28 0 1.71-1.43 3.28-3.28 3.28zm22.34-9.28c-4.31 0-7.84 3.5-7.84 7.83 0 4.31 3.53 7.83 7.84 7.83 4.33 0 7.83-3.52 7.83-7.83 0-4.33-3.5-7.83-7.83-7.83zm0 13.02c-2.86 0-5.2-2.33-5.2-5.19 0-2.88 2.34-5.21 5.2-5.21 2.88 0 5.21 2.33 5.21 5.21 0 2.86-2.33 5.19-5.21 5.19zm17.12-13.32v15.8h2.6v-8.94l4.77 5.82 4.79-5.82v8.94h2.62v-15.8l-7.41 8.96zm23.29 15.8h2.62l.83-1.87h7.06l.83 1.87h2.59L254 170.24zm6.96-9.87 2.4 5.4h-4.77zm23.24 3.42c-.44-.99-1.31-1.98-2.41-2.5l-2.46-1.13c-.5-.22-.82-.74-.82-1.39 0-.84.7-1.43 1.53-1.43.44 0 .86.25 1.13.59l.18.24 2.37-1.08-.2-.37c-.7-1.27-2.14-1.99-3.54-1.99-2.2 0-4.11 1.77-4.11 3.96 0 1.57.83 3.08 2.41 3.81l2.34 1.07c.76.36 1.31 1.16 1.31 1.99 0 1.31-1.05 2.19-2.25 2.19-.75 0-1.49-.46-1.84-1.12l-.16-.3-2.4 1.08.18.34c.85 1.61 2.48 2.62 4.29 2.62 2.75 0 4.79-2.25 4.79-4.89 0-.57-.11-1.17-.34-1.69zm21.09 6.44h9.97v-2.56h-7.4v-4.77h5.56v-2.56h-5.56v-2.91h7.4v-2.58h-9.97zm28.26-6-9.1-9.83v15.83h2.57v-9.39l9.1 9.83v-15.83h-2.57zm27.99-9.36h-4.09v15.36h2.58v-3.65h1.51q.66 0 1.33-.16 1-.23 1.85-.8a5.817 5.817 0 0 0 2.65-4.89c0-3.23-2.61-5.86-5.83-5.86zm0 9.14h-1.51v-6.57h1.51c1.79 0 3.26 1.47 3.26 3.29 0 1.08-.55 2.11-1.45 2.71q-.77.52-1.65.55-.1.02-.16.02zm24.61-9.14h-2.57v10.53c0 1.3-1.09 2.37-2.42 2.37-1.31 0-2.42-1.07-2.42-2.37v-10.53h-2.57v10.53c0 2.74 2.25 4.99 4.99 4.99 2.76 0 4.99-2.25 4.99-4.99zm18.5 9.36-9.1-9.83v15.83h2.57v-9.39l9.1 9.83v-15.83h-2.57zm11.65-9.36v2.57h3.68v12.81h2.58v-12.81h3.68v-2.57zm25.1-.14c-4.31 0-7.83 3.5-7.83 7.83 0 4.3 3.52 7.83 7.83 7.83 4.33 0 7.84-3.53 7.84-7.83 0-4.33-3.51-7.83-7.84-7.83zm0 13.02c-2.86 0-5.19-2.33-5.19-5.19 0-2.88 2.33-5.22 5.19-5.22 2.88 0 5.22 2.34 5.22 5.22 0 2.86-2.34 5.19-5.22 5.19z" class="s0"/><path id="Path 3" fill-rule="evenodd" d="m122.95 123.83-3.58 3.59c8.25 8.25 13.35 19.64 13.35 32.23 0 25.18-20.41 45.59-45.58 45.59-12.59 0-23.99-5.11-32.24-13.35l-3.58 3.58c9.17 9.16 21.83 14.83 35.82 14.83 27.97 0 50.65-22.67 50.65-50.65 0-13.98-5.67-26.65-14.84-35.82zm-86.47 35.82c0-27.97 22.68-50.65 50.66-50.65 4.43 0 8.73.57 12.83 1.64l-4.23 4.24q-4.19-.81-8.6-.82c-25.18 0-45.59 20.42-45.59 45.59q.01 4.42.81 8.6l-4.23 4.24c-1.08-4.1-1.65-8.4-1.65-12.84z" class="s0"/><path id="Path 4" fill-rule="evenodd" d="M80.25 162.51c-.92-2.04-2.71-4.08-5-5.17l-5.07-2.33c-1.05-.45-1.71-1.54-1.71-2.87 0-1.75 1.46-2.96 3.16-2.96.92 0 1.79.51 2.33 1.21l.38.5 4.91-2.24-.42-.75c-1.45-2.63-4.41-4.12-7.32-4.12-4.54 0-8.49 3.66-8.49 8.19 0 3.25 1.7 6.37 4.99 7.87l4.83 2.21c1.58.74 2.71 2.41 2.71 4.12 0 2.7-2.17 4.53-4.67 4.53-1.54 0-3.08-.96-3.79-2.33l-.33-.62-4.95 2.24.38.71c1.74 3.33 5.11 5.41 8.86 5.41 5.66 0 9.9-4.66 9.9-10.11 0-1.17-.24-2.41-.7-3.49zm3.41 13.31h5.41l1.71-3.87h14.61l1.7 3.87h5.37l-14.4-32.63zm14.41-20.39 4.95 11.15h-9.87z" class="s0"/></g></svg>